<svg xmlns="http://www.w3.org/2000/svg" width="85" height="53" viewBox="-6 0 85 40">
    <g fill="none" fill-rule="nonzero">
        <path fill="#049FD9" d="M-46-21h1440v80H-46z"/>
        <path fill="#FFF" d="M72 11.769a1.563 1.563 0 0 0-3.127 0v3.284a1.565 1.565 0 1 0 3.127 0v-3.284zm-8.596-4.31c0-.863-.699-1.563-1.582-1.563-.863 0-1.562.7-1.562 1.563v7.594c0 .868.699 1.567 1.562 1.567.883 0 1.582-.699 1.582-1.567V7.459zm-8.613-5.898a1.562 1.562 0 1 0-3.125 0v16.614a1.563 1.563 0 1 0 3.125 0V1.561zm-8.615 5.898a1.563 1.563 0 1 0-3.125 0v7.594a1.563 1.563 0 0 0 3.125 0V7.459zm-8.614 4.31a1.56 1.56 0 0 0-1.557-1.561c-.863 0-1.568.699-1.568 1.561v3.284a1.562 1.562 0 1 0 3.125 0v-3.284zm-8.599-4.31a1.567 1.567 0 0 0-3.135 0v7.594a1.567 1.567 0 1 0 3.135 0V7.459zm-8.61-5.898C20.353.699 19.649 0 18.786 0s-1.567.699-1.567 1.561v16.614a1.567 1.567 0 0 0 3.134 0V1.561zm-8.609 5.898a1.567 1.567 0 0 0-3.135 0v7.594a1.567 1.567 0 0 0 3.135 0V7.459zm-8.609 4.31c0-.862-.704-1.561-1.568-1.561-.862 0-1.567.699-1.567 1.561v3.284a1.568 1.568 0 0 0 3.135 0v-3.284zm32.358 13.618c-.094-.025-1.54-.398-3.077-.398-2.91 0-4.662 1.571-4.662 3.911 0 2.071 1.466 3.105 3.225 3.66.195.065.482.155.673.218.784.246 1.409.612 1.409 1.246 0 .709-.723 1.168-2.293 1.168-1.38 0-2.704-.394-2.982-.465v2.879c.155.033 1.728.342 3.407.342 2.416 0 5.18-1.056 5.18-4.198 0-1.525-.934-2.928-2.982-3.579l-.871-.278c-.52-.164-1.448-.429-1.448-1.191 0-.602.688-1.025 1.953-1.025 1.092 0 2.421.367 2.468.381v-2.671zm26.681 6.082c0 1.82-1.395 3.292-3.266 3.292-1.873 0-3.263-1.472-3.263-3.292 0-1.817 1.39-3.291 3.263-3.291 1.871 0 3.266 1.474 3.266 3.291zm-3.266-6.476c-3.847 0-6.607 2.902-6.607 6.476 0 3.579 2.76 6.479 6.607 6.479 3.848 0 6.612-2.9 6.612-6.479 0-3.574-2.764-6.476-6.612-6.476zm-42.885.448c-.296-.088-1.393-.448-2.878-.448-3.842 0-6.663 2.739-6.663 6.476 0 4.031 3.114 6.479 6.663 6.479 1.41 0 2.486-.334 2.878-.445v-3.359c-.135.075-1.168.664-2.652.664-2.103 0-3.46-1.48-3.46-3.339 0-1.917 1.415-3.337 3.46-3.337 1.51 0 2.525.601 2.652.668v-3.359zm32.954 0c-.299-.088-1.397-.448-2.877-.448-3.848 0-6.668 2.739-6.668 6.476 0 4.031 3.117 6.479 6.668 6.479 1.402 0 2.48-.334 2.877-.445v-3.359c-.139.075-1.172.664-2.657.664-2.101 0-3.457-1.48-3.457-3.339 0-1.917 1.416-3.337 3.457-3.337 1.51 0 2.528.601 2.657.668v-3.359zM20.363 37.726h3.157V25.215h-3.157v12.511z"/>
    </g>
</svg>
